# xmcd
#
# Track frame offsets:
#	150
#	17146
#	31989
#	47243
#	67798
#	86146
#	99791
#	114696
#	135347
#	150711
#	161243
#	180851
#
# Disc length: 2688 seconds
#
# Revision: 0
# Processed by: cddbd v1.5.1PL2 Copyright (c) Steve Scherf et al.
# Submitted via: SynApp - FreeCDDB Version: 2.0
#
DISCID=8d0a7e0c
DTITLE=Doug Adkins - Whiskey Salesman
DYEAR=2005
DGENRE=Country
TTITLE0=Doug Adkins - The best Part of me
TTITLE1=Doug Adkins - Whiskey salesman
TTITLE2=Doug Adkins - You gotta be strong
TTITLE3=Doug Adkins - At 95
TTITLE4=Doug Adkins - Devil's conin` to Town
TTITLE5=Doug Adkins - Window Shoppin`
TTITLE6=Doug Adkins - To the rodeo
TTITLE7=Doug Adkins - Then and wow
TTITLE8=Doug Adkins - Poor ol` country boy
TTITLE9=Doug Adkins - Takin` back my name
TTITLE10=Doug Atkins - Rodeo King
TTITLE11=Doug Atkins - Cold hearted woman
EXTD=
EXTT0=
EXTT1=
EXTT2=
EXTT3=
EXTT4=
EXTT5=
EXTT6=
EXTT7=
EXTT8=
EXTT9=
EXTT10=
EXTT11=
PLAYORDER=
